<?xml version="1.0" encoding="UTF-8"?>
<!-- Created with Inkscape (http://www.inkscape.org/) -->
<svg width="204.87mm" height="173.88mm" version="1.1" viewBox="0 0 204.87 173.88" xmlns="http://www.w3.org/2000/svg" xmlns:cc="http://creativecommons.org/ns#" xmlns:dc="http://purl.org/dc/elements/1.1/" xmlns:rdf="http://www.w3.org/1999/02/22-rdf-syntax-ns#">
 <metadata>
  <rdf:RDF>
   <cc:Work rdf:about="">
    <dc:format>image/svg+xml</dc:format>
    <dc:type rdf:resource="http://purl.org/dc/dcmitype/StillImage"/>
    <dc:title/>
   </cc:Work>
  </rdf:RDF>
 </metadata>
 <g transform="translate(8.5691 -60.446)">
  <g transform="matrix(.22727 0 0 .22727 -15.387 60.446)">
   <path d="m71 460-41-460h451l-41 460-185 52" fill="#e34f26"/>
   <path d="m256 472 149-41 35-394h-184" fill="#ef652a"/>
   <path d="m256 208h-75l-5-58h80v-56h-142l1 15 14 156h127zm0 147h-1l-63-17-4-45h-56l7 89 116 32h1z" fill="#ebebeb"/>
   <path d="m255 208v57h70l-7 73-63 17v59l116-32 1-10 13-149 2-15h-16zm0-114v56h137l1-12 3-29 1-15z" fill="#fff"/>
  </g>
  <g transform="matrix(.28222 0 0 .28222 39.282 -45.947)">
   <g transform="translate(119 276.36)">
    <polygon points="255.78 512 107.64 470.88 74.633 100.62 437.37 100.62 404.32 470.82" fill="#264de4"/>
    <polygon points="376.03 447.25 404.27 130.89 256 130.89 256 480.52" fill="#2965f1"/>
    <g fill="#ebebeb">
     <polygon points="150.31 268.22 154.38 313.63 256 313.63 256 268.22"/>
     <polygon points="142.13 176.3 146.26 221.72 256 221.72 256 176.3 255.84 176.3"/>
     <polygon points="205.23 372.55 201.99 336.33 177.42 336.33 156.41 336.33 162.77 407.63 255.79 433.46 256 433.4 256 386.15 255.8 386.21"/>
    </g>
    <polygon points="315.7 268.22 255.84 268.22 255.84 313.63 311.76 313.63 306.49 372.52 255.84 386.19 255.84 433.44 348.94 407.63 349.62 399.96 360.29 280.41 361.4 268.22 369.6 176.3 255.84 176.3 255.84 221.72 319.83 221.72" fill="#fff"/>
   </g>
  </g>
 </g>
 <g transform="translate(59.144 12.183)">
  <g transform="matrix(.14435 0 0 .14435 -.67223 70.76)">
   <rect width="630" height="630" fill="#f7df1e"/>
   <path d="m423.2 492.19c12.69 20.72 29.2 35.95 58.4 35.95 24.53 0 40.2-12.26 40.2-29.2 0-20.3-16.1-27.49-43.1-39.3l-14.8-6.35c-42.72-18.2-71.1-41-71.1-89.2 0-44.4 33.83-78.2 86.7-78.2 37.64 0 64.7 13.1 84.2 47.4l-46.1 29.6c-10.15-18.2-21.1-25.37-38.1-25.37-17.34 0-28.33 11-28.33 25.37 0 17.76 11 24.95 36.4 35.95l14.8 6.34c50.3 21.57 78.7 43.56 78.7 93 0 53.3-41.87 82.5-98.1 82.5-54.98 0-90.5-26.2-107.88-60.54zm-209.13 5.13c9.3 16.5 17.76 30.45 38.1 30.45 19.45 0 31.72-7.61 31.72-37.2v-201.3h59.2v202.1c0 61.3-35.94 89.2-88.4 89.2-47.4 0-74.85-24.53-88.81-54.075z"/>
  </g>
 </g>
</svg>
