<?xml version="1.0" encoding="UTF-8"?>
<!-- Created with Inkscape (http://www.inkscape.org/) -->
<svg width="67.733mm" height="60.423mm" version="1.1" viewBox="0 0 67.733 60.423" xmlns="http://www.w3.org/2000/svg" xmlns:cc="http://creativecommons.org/ns#" xmlns:dc="http://purl.org/dc/elements/1.1/" xmlns:rdf="http://www.w3.org/1999/02/22-rdf-syntax-ns#">
 <metadata>
  <rdf:RDF>
   <cc:Work rdf:about="">
    <dc:format>image/svg+xml</dc:format>
    <dc:type rdf:resource="http://purl.org/dc/dcmitype/StillImage"/>
    <dc:title/>
   </cc:Work>
  </rdf:RDF>
 </metadata>
 <g transform="translate(-130.66 -113.02)">
  <g transform="matrix(.26458 0 0 .26458 210.9 137.74)">
   <path d="m-226.77 109.91c-9.7493-7.6702-20.153-15.021-27.261-25.378-14.96-18.263-26.476-39.404-34.349-61.625-4.7608-14.45-6.3896-29.941-12.53-43.83-6.4148-10.091 1.1048-21.114 12.157-24.32 4.9165-0.94748 13.568-5.5895 3.1253-2.2683-9.3643 6.8667-10.267-6.239-0.66625-7.0693 6.552-0.8688 8.9642-6.2306 6.7211-11.057-7.0358-4.5901 17.055-9.6255 4.9316-16.472-12.62-13.621 17.661-16.243 10.188-0.77171-1.7862 11.895 21.166-2.1846 15.836 11.554 5.4154 6.5989 20.272 1.5049 19.899 10.757 7.8862 0.54238 10.593 7.1731 17.989 7.6836 7.6769 3.4652 21.579 6.1921 24.188 14.837-7.61 6.023-25.227-12.443-26.077 4.2319 2.3017 24.638 1.7142 50.017 10.725 73.478 4.262 14.204 14.601 25.384 23.931 36.45 8.9324 10.834 21.03 18.466 33.363 24.887 10.816 5.1007 22.475 8.4805 34.265 10.606 4.7792-3.656 13.221-17.251 20.676-11.522 0.3599 6.4482-14.796 13.471-0.71145 12.758 8.2779-2.4976 14.013 6.3947 20.826-1.6288 6.2775 7.4359 26.091-4.7474 21.625 10.451-6.0414 3.8971-14.85 1.5418-20.898 6.9052-9.972-4.9835-17.912 4.4528-28.955 3.2626-12.26 2.1963-24.738 3.0802-37.168 3.0986-20.396-1.6087-41.222-2.2884-60.624-9.3894-10.933-3.1772-21.598-9.4028-31.205-15.628zm17.224 7.4677c10.672 4.6102 21.109 9.4748 32.807 10.946 18.558 2.5763 37.723 6.552 56.347 2.9295-8.4286-3.805-17.145 1.4781-25.542-2.7202-10.069 2.1645-20.878-0.55576-31.12-1.8966-11.639-5.1844-24.206-8.7483-35.107-15.484-13.628-4.9751 7.0425 6.383 10.724 7.3053 8.5139 4.8312-9.3643-2.4792-11.889-4.4863-7.1329-4.0025-8.0419-3.1655-0.70475 0.89559 1.4765 0.86378 2.9362 1.7728 4.4846 2.511zm-20.311-14.353c10.345 3.8318-0.0452-7.2718-4.7793-6.6307-2.0992-3.6426-8.0235-5.9444-3.8452-7.8996-7.5129 2.6098-7.8728-9.9201-11.403-8.1272-7.9515-2.511-3.0935-11.405-12.568-16.871-0.86378-5.7552-9.4095-10.744-12.13-19.422-1.2036-4.4461-9.659-17.204-4.4662-5.33 4.4194 11.43 12.195 21.226 18.668 31.002 5.022 9.3108 10.96 19.048 20.108 24.855 3.0868 2.9613 6.0615 7.4928 10.416 8.4219zm-29.79-32.715c0.35824-1.5635 1.8899 3.3798 0 0zm42.183 37.305c2.2884-1.0262-3.2961-1.294 0 0zm5.6096 2.0473c-0.58088-2.8257-2.5629 1.5819 0 0zm7.0308 2.9295c3.3413-3.1856-5.1592-2.0088 0 0zm12.044 6.7144c2.0339-3.0015-6.5068-1.1299 0 0zm-23.128-16.124c5.1911-3.3614-6.7161-0.0469 0 0zm5.2697 2.6282c-0.15066-1.7728-1.8766 0.79682 0 0zm26.345 16.445c4.2369 2.675 24.738 5.859 11.902 1.0981-2.1528 0.45198-23.803-6.1268-11.902-1.0981zm-41.823-32.578c-0.4118-1.7778-6.5788-1.9686 0 0zm12.26 7.1546c3.1973-2.2298-6.624-1.7209 0 0zm10.319 6.3227c4.5834-1.7259-7.4275-1.7326 0 0zm-27.576-18.911c4.9701 3.8117 20.049 0.49048 7.6116-2.275-5.6564-3.0149-18.407-5.0806-9.7159 1.818zm34.566 21.096c2.0724-3.5254-8.6847-2.0155 0 0zm-10.503-8.3449c12.15 3.4334-10.22-7.6903-2.9998-1.2689l1.602 0.72652zm21.057 12.17c11.509 0.11049-10.397-1.5886 0 0zm-49.547-31.578c-0.45198-2.1444-2.8374 0.17745 0 0zm69.014 42.498c0.30634-3.8703-3.7548 2.8843 0 0zm-49.371-30.472c-0.69973-2.0406-3.5957-0.0854 0 0zm-18.551-13.372c6.6056-0.39841-9.0496-2.9094 0 0zm-21.978-14.204c-0.8236-3.1706-7.1865-5.6949 0 0zm57.694 36.614c-1.2086-1.381-0.56916 0.29965 0 0zm35.906 22.036c-0.11048-2.1126-1.9552 0.79682 0 0zm-39.083-25.319c0.64783-2.7202-5.6363-0.82528 0 0zm-26.752-16.956c4.9182-0.52396-7.8795-3.3229 0 0zm45.251 28.118c7.6636-3.035-7.4677-1.4781 0 0zm-23.535-15.975c8.827 1.1366-10.508-6.0096-1.9418-0.64114zm30.681 18.864c8.2461-4.9232 5.5258 11.542 13.988 1.3928 8.3432-6.0933-7.2066 7.533 3.0734 1.0864 7.4409-4.9768 18.426 2.3603 25.364 4.7474 4.9885-0.24273 9.8414 4.3156 14.96 1.5417 9.8481-2.655-19.263-3.9356-11.633-8.6378-9.0111 2.6232-15.667-3.1254-20.101-8.899-10.109-2.3352-21.794-7.5012-26.842-16.452-2.059-3.3547 2.9697 0.47709-1.7778-5.0153-6.0883-5.4154-9.1283-11.569-13.216-18.153-4.8847-2.6031-5.4606-10.273-5.9511-0.25445 0.0402-6.3244-5.8975-10.581-7.3488-8.8153-0.0268-6.0883 6.3562-3.035 1.8899-7.5397-0.96087-6.311-4.1264-12.888-5.0756-20.016-1.4765-3.4334-0.20925-10.789-5.0471-3.0149-1.7594 8.2193-0.58255-10.096 2.1578-4.0611 3.5957-6.1586-1.2957-5.4338-1.4915-4.5834 2.3419-5.1978 1.4848-12.575-0.61436-9.7627 1.2488-5.5125 1.9753-20.284-1.8632-17.662 2.3269-5.7669 4.4143-26.379-5.6966-18.518-4.0929 0.05859-11.187 1.4848-14.535 3.1521 10.508 5.7937-1.0596 2.0925-5.3434 1.1701-0.55577 5.3618-4.7926 3.0467-10.089 3.0986 8.462 1.0462-4.1197 8.6512-8.9642 5.6966-6.3043 3.0082 5.4338 10.528 0.12388 12.855 0.65453 3.4986-9.6523-1.2672-8.8471 6.8282-6.1151-2.578-0.83699 9.5987 2.2231 5.479 10.404 2.819 7.3237 9.2338 7.5849 15.334-1.6941 3.5506-8.37-8.3499-1.4848-7.8008-5.4338-8.822-6.008-3.1906-10.521 0.90898-1.0462 0.29462 11.509 5.8322 3.6292 8.5658 6.932 1.073 7.1346 7.1413 8.5474 10.98 4.1649 4.3407 3.3078-4.7943 8.298 0.4252-3.1588-4.6504-16.715-13.099-5.8004-10.39-0.0586-4.6755-1.9753-8.4486 1.3727-8.3583 3.3162-5.9963-3.4719 14.791 3.9958 7.168 2.0657-0.90228 2.583-6.003 6.2976 0.48378 5.3936 5.3099 1.9485 9.1534-5.6631 4.2888 1.3593 4.6236 10.181 6.2708 8.5206 13.497 1.7577 6.3562 4.2168 4.0142 6.3612 3.6476 1.6807 6.1737 2.6365 1.6355 2.7152-1.3074 7.6954 1.6489 5.8908 6.1988 8.303 9.3777 5.3032 2.3921-7.5916-16.224 1.5116-5.5978 9.5786 8.6512 3.5957 12.26-5.0019 10.874 5.4405-0.43858 7.1915 7.3572 14 7.0827 6.2055 2.9546 10.411 14.294-0.28793 9.5719-3.7079-3.348-16.845-7.4744-6.1134-1.1115 9.9 4.5901 17.773 7.3304 27.326 13.092 6.8332 4.878 9.7878 10.467 12.378 11.574-5.7468 2.7454-17.314-2.1913-8.7232-3.7012-5.3618-0.97427-11.39-3.6878-6.2574 2.9881 4.3674 3.6493 15.464 3.2626 17.46 3.6744-1.6874 3.7146-4.5834 4.0092 0.0653 4.2971-5.186 2.7654 1.6673 3.1973 2.1444 4.7726zm-10.606-29.954c-3.1588-3.3028-3.9757-9.4815-0.56247-4.108 1.7527 0.70643 5.6045 10.104 0.56247 4.108zm34.546 21.944c1.9686-0.13057 0.0586 1.4966 0 0zm-39.528-30.04c-0.12555-4.9902 1.1366 3.8502 0 0zm-3.4334-4.6169c-3.9757-7.6702 5.0019 2.1712 0 0zm-41.616-28.719c2.3352-0.62273 1.1517 3.9874 0 0zm33.122 17.949c1.4313-5.3819 1.6807 4.5131 0 0zm-23.397-16.27c-1.6472-2.968 3.4468 2.7872 0 0zm20.075 6.4348c-3.7598-8.4219 2.6684-4.6035 0.837 1.3794zm-34.623-23.089c-1.6807-2.7654-4.4595-10.874-3.5639-13.352 0.80352 4.0343 8.5725 17.354 3.805 5.5192-5.263-9.9201 6.2976 3.2157 7.4878 5.6949 0.55577 2.4591-3.2509-0.67295-0.67462 5.1007-4.7006-6.5721-2.7721 3.6292-7.0542-2.963zm-10.698-7.3756c0.43858-6.4281 2.4457 4.4076 0 0zm4.8127 1.6606c2.295-4.8512 3.8904 6.7613 0 0zm-11.581-8.9576c-3.9824-3.964-6.8667-7.6117 0.18917-2.4591 2.7135 0.10379-6.0414-8.298 0.65453-2.6683 7.0358 1.2823 3.4719 11.542-0.8437 5.1274zm6.0816-0.15735c2.3151-2.295 1.2287 2.2565 0 0zm3.7464 1.1969c-3.512-6.5721 4.257 2.7588 0 0zm-7.4409-7.1078c-11.581-10.313 14.549 5.3869 1.8899 1.9084zm33.185 19.276c-5.0153-3.0015-1.3342-21.153 0.38-8.7416 4.8713-1.5769-0.26951 6.4148 3.3597 6.3361-0.56749 5.0404-2.1963 6.8533-3.7397 2.4055zm12.274 7.2584c0.49048-5.4723 1.0329 3.7414 0 0zm-2.131-2.1126c0.54907-2.3336 0.0519 2.7537 0 0zm-41.06-27.81c-7.4409-10.267 21.625 10.384 4.7675 2.6031-1.7594-0.4637-3.8837-0.62775-4.7675-2.6031zm23.638 12.53c-0.70475-8.6445 1.5702 1.4313 0 0zm17.944 11.514c1.3861-4.9232 0.10547 3.2576 0 0zm-40.437-27.961c4.421-0.94748 18.322 7.7623 5.5577 2.4859-1.4179-1.5702-4.4461-0.85708-5.5577-2.4859zm37.971 18.925c0.47207-8.8404 2.6432-5.2764 0.0201 1.2689zm-34.682-22.003c1.8046-2.6432-4.7876-11.947 0.94748-3.3363 2.4792 1.9686 7.1731 3.2961 3.0282 4.1264 6.5185 5.7485-1.5886 1.5568-3.9757-0.79012zm32.805 19.244c1.2438-10.071 1.0998 5.8975 0 0zm-36.572-28.543c1.3794-0.58925 0.73153 1.8364 0 0zm8.5591 5.094c2.203-4.6236 4.0611 5.1526 0 0zm24.136 13.424c-0.0201-1.7711 0.457 2.583 0 0zm-1.3995-3.0919c-3.348-8.2662 3.1186 4.3741 0 0zm-2.054-5.4221c-0.56079-3.4133 1.91 4.2904 0 0zm3.348-5.4405c-2.3017-4.0477 2.9044-17.851 3.4869-9.2907-2.4273 6.6692-0.69973 10.397 0.98598 1.4514 3.127-7.0358-0.67294 13.896-4.4729 7.8393zm3.4401-20.525c1.001-1.2304 0.22264 1.4832 0 0zm-5.7468 113.21c-1.361-1.1902 0.17577 0.75162 0 0zm11.835 5.9828c6.5838 1.6941 6.552-1.0211 0.60096-1.8314-3.1973-2.9747-13.3-6.1335-4.257-0.3666 0.59594 1.5183 2.4859 1.4781 3.656 2.198zm-23.371-15.525c3.6225 2.7085 13.66 7.6635 5.1659 1.0345 2.8642-3.3296-5.4807-5.1007-2.7135-7.3304-7.0425-4.3105-5.5593-3.9238-0.62105-3.7866-8.462-3.7866 1.222-3.4986 0.76501-5.4405-3.2626-0.64114-16.211-5.7552-8.5926 0.4185-7.7422-3.9439-1.8448 1.4714-4.185 0.90228-7.9197-2.1578 7.0492 6.0297-1.2555 3.9958 4.5382 3.5957 12.222 9.2204 1.915 3.805-1.3526 1.9552 7.3773 4.9182 9.5217 6.4014zm12.378 7.1145c15.048 4.8462-7.3823-5.931 0 0zm63.364 38.385c0.19586-2.9881-2.054 2.5495 0 0zm6.5135 2.7403c3.4719-3.3614 0.14397 5.3618 5.7535-0.8236 0.0586-4.4277-0.16907-7.0425-6.4466-1.6623-1.7343 0.96255-2.5043 5.0354 0.69303 2.4859zm-103.38-64.926c-1.0663-4.1917-7.4744-4.1733 0 0zm6.9504 4.5566c-2.583-4.2821-9.2137-3.877 0 0zm39.568 23.861c3.8652 3.4334 17.741 2.5177 4.6889 0.4252-1.9301-2.8575-12.267-2.1712-4.6889-0.4252zm54.385 33.592c5.9444-4.9902-5.7602 2.2231 0 0zm12.366 8.4938c0.0385-1.602-2.5629 0.69973 0 0zm0.0201-2.2432c6.5838-6.9705-6.3762 0.4118 0 0zm-130.4-82.582c-5.6096-8.0034-3.4852-11.601-8.899-18.139-1.0278-5.0019-9.2856-16.342-4.2704-4.329 4.5901 7.0291 5.951 17.91 13.169 22.468zm128.33 80.365c12.118-7.8276-4.9684-3.4066 0 0zm9.2472 3.6225c6.0682-5.2061-3.8385-1.0864 0 0zm-122.53-78.515c1.7343-2.583-4.4846-0.33313 0 0zm120.6 76.043c5.8724-3.7849-1.3526-3.204-1.0647 0.34651zm-79.697-50.233c-0.20255-2.5629-3.1053 0.21595 0 0zm4.9232 2.8324c-1.5685-3.1655-2.4055 0.49718 0 0zm84.197 49.959c7.5263-5.4288-4.5566-1.0412-1.5752 1.0329zm-2.8826-1.3928c6.1335-5.1342-6.4683 2.275 0 0zm14.724 9.8012c4.1147-2.7537-5.0019-0.88889 0 0zm-138.09-88.872c5.5125 1.2354 22.043 13.581 12.294 0.85709-4.9952-1.4781-2.0004-13.687-7.0944-11.529 3.42 5.715 2.8106 8.1406-4.3691 4.5449-9.0161-4.4076-5.0672 2.1779-3.3011 3.9958-2.4072 0.54907 3.1772 2.0858 2.4708 2.131zm-25.128-19.845c0.98598-4.0879-9.0965-22.468-4.7608-9.2137 1.5618 2.7788 1.3995 8.0419 4.7608 9.2137zm46.125 28.438c-2.8441-2.3737-0.13727-0.33982 0 0zm6.9906 1.6288c0-4.329-7.7288-1.7594 0 0zm60.617 38.207c-1.1567-2.9563-4.57-0.0653 0 0zm2.9094 2.1243c-0.43189-1.6539-1.6807 0.32141 0 0zm24.025 15.138c2.3084-1.7058-2.8843-0.22097 0 0zm-128.12-82.332c6.6106-2.5579-7.0827-1.8246 0 0zm95.848 60.381c-0.077-4.277-4.2168 1.0663 0 0zm-98.458-66.469c4.2436-1.4313-3.9305-0.94078 0 0zm12.319 5.9695c-0.072-1.4045-1.3007 0.53735 0 0zm150.3 92.168c5.4589-1.1048 17.903 2.7788 19.91-1.4447-6.6307-0.16405-22.932-4.6822-23.704 1.0714l1.4514 0.22933zm-146.38-91.181c0.0988-4.3356-3.3798-0.16237 0 0zm-32.393-22.473c-1.4714-8.2595-5.5978-1.2505 0 0zm7.7221 1.9418c0.0988-2.655-7.0693-2.3871 0 0zm4.4143 2.1712c-1.2756-1.0345-0.99435 1.3007 0 0zm27.783 17.818c1.3091-1.2036-3.0986-0.88889 0 0zm-30.719-22.709c-0.75162-6.239-8.9525-0.93576 0 0zm-15.844-10.28c-0.22264-2.8776-1.5434 1.0847 0 0zm2.3603-1.7778c-0.38501-3.4149-2.0272 0.43022 0 0zm13.014 7.7673c5.5058-2.1578-10.026-4.4729-1.1249-0.40511zm174.23 107.62c3.5238-3.2291-4.4729-0.99938 0 0zm21.049 10.908c1.4128-4.1716-3.5572 0.54907 0 0zm-193.94-125.35c0.58255-4.041-4.3674 0.80352 0 0zm-18.524-12.411c-0.99435-5.7016-0.85708-15.714 8.6579-12.332-12.699 2.5244 8.7952 15.791 6.0816 5.3149 5.3417 0.26282 10.449-3.1572 7.6435 2.0272 10.528-1.1567 17.82-10.285 27.988-9.0027 7.918-1.0529 16.576-1.8447 25.11-5.0354 7.0157-0.50387 13.77-8.0569 9.9268-12.537-9.5669-0.81021-19.586 0.38669-30.159 2.4926-11.718 2.4323-22.363 7.0609-34.186 9.0496-11.529 1.5501 2.3151 4.2637-0.98766 4.8713-6.0096 2.0858 7.1731 3.492-0.77841 5.6949-4.9098-0.93409-10.024-2.6215-7.9247-7.8008-11.038 1.4396-20.742 6.0163-12.019 17.251l0.64783 0.0067zm26.608-13.549c2.583-9.5334 13.862 7.8477 4.2369 1.2689-1.145-0.86378-3.0416-1.5635-4.2369-1.2689zm0.5022-4.6236c3.7347-2.7788 1.982 1.5635 0 0zm4.7408 0.07868c0.3415-4.3875 10.863 2.3218 1.7343 1.5769zm6.4867-2.6081c2.3737-2.7738 0.68801 2.4574 0 0zm1.6623-1.1115c3.949-4.7408 22.343-3.0283 8.8789-0.46537-3.6091-2.7202-6.3746 1.602-8.8789 0.46537zm24.01-3.7012c-0.59427-12.955 11.934 4.5968 0 0zm6.8148-0.04018c2.4909-6.5252 9.6707-2.6215 1.1567-1.3141 0.18247 0.69973-0.25445 3.3748-1.1567 1.3141zm-54.987 34.618c7.4409-4.5583-7.8996-3.9556 0 0zm5.5058 1.5233c2.6098-2.7721-5.6765-1.1249 0 0zm-16.216-11.502c4.2503-3.2693-5.0354-1.2421 0 0zm219.76 137.48c0.12387-3.7933-3.2509 1.7058 0 0zm-22.331-15.243c0.63444-4.3608-2.8709 0.38 0 0zm28.471 16.715c5.9444 0.0201 18.014-1.8514 5.0806-1.8447-2.0339 0.31471-11.828 0.24942-5.0806 1.8447zm-204.85-130.13c4.8127-0.32643 7.5263-5.3032-0.93577-5.022-13.111-1.3526 11.567 4.493-1.6807 2.819-1.7778 1.1768 2.511 2.5311 2.6165 2.203zm4.2369 2.1461c-0.50388-3.0868-1.4915 1.6405 0 0zm5.0287-13.405c2.0858-2.5897-2.891-0.69303 0 0zm-16.008-26.752c8.5926-2.9161 20.337-6.1988 24.392 1.4396-4.1264-4.9634-1.6673-9.8548 2.2298-2.5897 5.5125 7.3438 8.2712-3.3413 4.6872-5.8071 4.0879 5.0739 8.7299 7.4744 2.7336 0.32141 6.5202-7.841-13.045 1.0262-17.492 0.93409-2.1377 0.96087-22.088 5.0873-16.551 5.7016zm5.0354-9.6372c4.8981-3.6945 16.942 2.203 9.2137-3.6761-0.75832-0.66625-16.922 4.4595-9.2137 3.6761zm17.858 0.73823c5.7284 0.14396-2.4708-7.7037 4.3557-4.1465-1.1182-3.661-7.9515-4.3474-11.293-5.8121-1.8899 3.348 3.8435 10.004 6.937 9.9586zm-14.726-16.211c1.982-2.6868-3.4786 1.3677 0 0zm7.2986 1.746c9.2388-1.222-2.3553-3.9757-1.8648-0.09709zm-13.628-10.658c-6.5068-8.4938 12.235 1.4262 5.623-7.4677-5.5644-4.426-10.906 4.9902-5.623 7.4677zm83.47 44.957c2.9831-5.2848-12.312-7.1279-2.0071-1.8715 0.94748 0.31471 0.73321 2.2365 2.0071 1.8715z"/>
  </g>
 </g>
</svg>
